<!--
  - Copyright (C) 2020-2022, K2N.IO.
  -
  - This library is free software; you can redistribute it and/or
  - modify it under the terms of the GNU Lesser General Public
  - License as published by the Free Software Foundation; either
  - version 2.1 of the License, or (at your option) any later version.
  -
  - This library is distributed in the hope that it will be useful,
  - but WITHOUT ANY WARRANTY; without even the implied warranty of
  - MERCHANTABILITY or FITNESS FOR A PARTICULAR PURPOSE. See the GNU
  - Lesser General Public License for more details.
  -
  - You should have received a copy of the GNU Lesser General Public
  - License along with this library; if not, write to the Free Software
  - Foundation, Inc., 51 Franklin Street, Fifth Floor, Boston, MA 02110-1301 USA
  -
  -->

<svg xmlns="http://www.w3.org/2000/svg" viewBox="0 0 16 16">
    <defs>
        <style>
            .cls-1{fill:#ff6845;}.cls-1,.cls-2,.cls-3,.cls-5,.cls-6{fill-rule:evenodd;}.cls-2{fill:#ffad45;}.cls-3{fill:#9ecb45;}.cls-4,.cls-5{fill:#428eff;}.cls-6{fill:#f60;}
        </style>
    </defs>
    <g id="icon" data-name="icon">
        <path class="cls-1" d="M13,1.85a9.17,9.17,0,0,1,3,2.22L13.6,5.9a6.68,6.68,0,0,0-1.83-1.6Z"/>
        <path class="cls-2" d="M5,2A9.16,9.16,0,0,1,9.12,1a9.33,9.33,0,0,1,2.77.42L10.71,3.79a6.87,6.87,0,0,0-4.84,0Z"/>
        <path class="cls-3" d="M1.57,9.93H0A8.85,8.85,0,0,1,4,2.58L4.81,4.3A6.56,6.56,0,0,0,1.57,9.93Z"/>
        <path class="cls-4"
              d="M8.74,15A5,5,0,0,1,5,13.54,4.9,4.9,0,0,1,3.56,9.93,4.87,4.87,0,0,1,5,6.32,5,5,0,0,1,8.74,4.86a5.16,5.16,0,0,1,2.49.62l.07,0L8.74,6.73,11.3,5.52,8.74,6.73a3.05,3.05,0,0,0-3.23,3.2,3.05,3.05,0,0,0,3.23,3.19,3.16,3.16,0,0,0,1.54-.37,2.56,2.56,0,0,0,1.05-1l1.69,1a4.57,4.57,0,0,1-1.78,1.68,5.18,5.18,0,0,1-2.5.62Z"/>
        <path class="cls-5" d="M8.73,8.44l4-1.88L9.87,9.89A1.44,1.44,0,0,0,9.54,9a1.58,1.58,0,0,0-.81-.54Z"/>
        <path class="cls-6" d="M9.23,9.22A1.22,1.22,0,0,0,7.56,9a1.14,1.14,0,0,0-.2,1.63A1.2,1.2,0,0,0,9,10.85a1.15,1.15,0,0,0,.21-1.63Z"/>
    </g>


</svg>
